<svg xmlns="http://www.w3.org/2000/svg" viewBox="0 0 197.2 52.3">
  <path fill="#2E7A86" d="M47.7 39.5c.3.6.1 1.3-.5 1.6-4.3 2.3-9.2 3.6-14.2 3.6-16.6 0-30-13.4-30-29.8 0-.6.5-1.2 1.2-1.2s1.2.5 1.2 1.2C5.4 30 17.7 42.3 33 42.3c4.6 0 9.1-1.1 13.1-3.3.6-.2 1.3 0 1.6.5zm1.8-8.2C45.2 35.6 39.3 38 33.1 38 20.2 38 9.7 27.6 9.7 14.8c0-2.4.4-4.7 1.1-6.9.2-.6-.2-1.3-.8-1.5-.6-.2-1.3.1-1.5.8-.8 2.4-1.2 5-1.2 7.6 0 14.1 11.5 25.6 25.7 25.6 6.8 0 13.3-2.7 18.1-7.3.5-.5.5-1.2 0-1.6-.4-.6-1.1-.6-1.6-.2zM38.8 46.2A31.89 31.89 0 012.4 23.6c-.2-.6-.8-1-1.4-.8-.6.2-1 .8-.8 1.4C4.2 38.7 17.6 49 33 49c2.1 0 4.1-.2 6.1-.5.6-.1 1.1-.7.9-1.4 0-.6-.6-1.1-1.2-.9zM33.1 2c7 0 12.7 5.7 12.7 12.7s-5.7 12.7-12.7 12.7c-7 0-12.7-5.7-12.7-12.7S26.1 2 33.1 2zM22.7 14.7c0 5.7 4.6 10.3 10.4 10.3 5.7 0 10.4-4.6 10.4-10.3 0-5.7-4.6-10.3-10.4-10.3a10.3 10.3 0 00-10.4 10.3zM25.5 50C16.8 48.1 9 43 3.8 35.8c-.4-.5-1.1-.6-1.6-.3-.5.4-.6 1.1-.3 1.6C7.5 44.9 15.7 50.3 25 52.3c.6.1 1.3-.3 1.4-.9.1-.6-.3-1.2-.9-1.4zm-.7-35.3c0-4.6 3.7-8.3 8.4-8.3 4.6 0 8.4 3.7 8.4 8.3 0 4.6-3.7 8.3-8.4 8.3a8.3 8.3 0 01-8.4-8.3zm2.3 0c0 3.3 2.7 6 6 6s6-2.7 6-6-2.7-6-6-6-6 2.7-6 6zm24.4 8c-.6-.3-1.3-.1-1.6.5-3.2 6.3-9.7 10.4-17 10.4-10.5 0-19-8.5-19-18.9 0-4 1.2-7.8 3.5-10.9.4-.5.3-1.3-.3-1.6-.4-.4-1.1-.2-1.5.3A21.23 21.23 0 0033 36c8.1 0 15.5-4.6 19-11.7.3-.6.1-1.3-.5-1.6zm-18.4 9c8.9 0 16.3-6.9 17-15.7v-1.3c0-.6-.5-1.2-1.2-1.2-.6 0-1.2.5-1.2 1.2v1.1a14.72 14.72 0 01-29.4-1.2c0-5.2 2.7-9.9 7-12.5.6-.3.7-1.1.4-1.6-.3-.5-1.1-.7-1.6-.4-5 3.1-8.2 8.5-8.2 14.5.2 9.5 7.8 17.1 17.2 17.1zm-4-17c0-2.2 1.8-4 4-4s4 1.8 4 4-1.8 4-4 4-4-1.8-4-4zm2.3 0c0 .9.7 1.7 1.7 1.7s1.7-.7 1.7-1.7S34 13 33.1 13s-1.7.7-1.7 1.7zm148.2 21.6h2.7V21.2h-2.7v15.1zm-4.7-15.4c-1 0-1.9.3-2.7.9-.8.6-1.4 1.4-1.9 2.5l-.2-2.4c0-.3-.1-.5-.2-.6-.1-.1-.3-.2-.6-.2h-1.5v15.1h2.7v-9.6a5 5 0 011.6-2.3c.6-.5 1.4-.8 2.3-.8.5 0 .9 0 1.2.1.3.1.5.1.6.1.2 0 .4-.1.5-.4l.3-2c-.3-.2-.6-.3-.9-.4h-1.2zm7.5-5.8c-.2-.2-.4-.3-.6-.4-.2-.1-.5-.1-.7-.1-.3 0-.5 0-.7.1-.2.1-.4.2-.6.4-.2.2-.3.4-.4.6-.1.2-.2.5-.2.7 0 .3 0 .5.2.7.1.2.2.4.4.6.2.2.4.3.6.4.2.1.5.1.7.1.3 0 .5 0 .7-.1.2-.1.4-.2.6-.4.2-.2.3-.4.4-.6.1-.2.2-.5.2-.7 0-.3-.1-.5-.2-.7-.1-.3-.3-.5-.4-.6zM75.2 32.2c-.1 0-.3.1-.5.2-.4.3-.7.6-1 .8-.3.2-.7.4-1.1.6-.4.1-.8.3-1.3.3-.5.1-1 .1-1.6.1a6.62 6.62 0 01-4.9-2c-.6-.7-1.1-1.5-1.5-2.4-.4-1-.5-2.1-.5-3.3 0-1.2.2-2.3.5-3.2.4-1 .9-1.8 1.5-2.4.6-.7 1.4-1.2 2.3-1.5.9-.4 1.9-.5 2.9-.5a8.08 8.08 0 012.8.4c.3.1.6.3.9.4.3.1.5.3.7.4.2.1.3.2.5.3.1.1.3.1.4.1.2 0 .3 0 .4-.1.1-.1.2-.1.2-.2l.9-1.2c-.8-.8-1.8-1.4-2.8-1.8-1.1-.4-2.3-.7-3.8-.7s-2.8.2-4.1.7c-1.2.5-2.3 1.2-3.2 2.1-.9.9-1.6 2-2 3.2s-.9 2.4-.9 3.9.2 2.8.7 4.1c.5 1.2 1.1 2.3 1.9 3.2.8.9 1.8 1.6 3 2.1s2.5.7 3.9.7c1.6 0 3-.3 4.2-.8 1.2-.5 2.2-1.3 3-2.2l-1.1-1.1c-.1-.2-.2-.2-.4-.2zm121.2 1c-.1-.2-.3-.3-.5-.3s-.4.1-.5.2c-.2.2-.4.3-.7.5-.3.2-.6.4-1.1.5-.4.2-1 .2-1.6.2-.7 0-1.3-.1-1.8-.4-.5-.3-1-.6-1.4-1.1-.4-.5-.7-1.1-.9-1.8s-.3-1.5-.3-2.4c0-.9.1-1.7.3-2.4.2-.7.5-1.3.9-1.8s.9-.9 1.4-1.1a5.21 5.21 0 013.4-.2c.4.1.7.3 1 .4.3.1.5.3.7.4.2.1.3.2.5.2s.3 0 .3-.1c.1-.1.2-.1.2-.3l.7-1c-.6-.6-1.4-1.1-2.2-1.5a8.21 8.21 0 00-5.9.1c-.9.4-1.6.9-2.3 1.6-.6.7-1.1 1.5-1.4 2.5a10.59 10.59 0 000 6.4c.3 1 .8 1.8 1.4 2.4.6.7 1.3 1.2 2.1 1.5a7.79 7.79 0 005.8-.1c1-.4 1.8-1 2.5-1.8l-.6-.6zm-32.2.4c-.1 0-.2 0-.3.1-.1.1-.2.2-.4.2-.2.1-.3.2-.5.2-.2.1-.5.1-.7.1-.5 0-.9-.2-1.2-.5-.3-.3-.5-.8-.5-1.4v-9.1h4.4v-1.9h-4.4v-5.2h-1.4c-.2 0-.3 0-.4.1-.1.1-.2.2-.2.4l-.6 4.7-2.5.3v1.1c0 .2.1.3.2.4.1.1.2.1.4.1h1.8v9.2c0 1.3.3 2.2 1 2.9.6.7 1.6 1 2.8 1 .7 0 1.4-.1 2-.4s1.2-.6 1.7-1l-.8-1.3c-.2.1-.3 0-.4 0zm-71.5-8.1a10.73 10.73 0 010 6.4c-.3 1-.8 1.8-1.4 2.4-.6.7-1.4 1.2-2.3 1.6-.9.4-1.9.5-3 .5s-2.1-.2-3-.5c-.9-.4-1.7-.9-2.3-1.6-.6-.7-1.1-1.5-1.5-2.4a10.73 10.73 0 010-6.4c.3-1 .8-1.8 1.5-2.5a7.3 7.3 0 015.3-2.2 7.3 7.3 0 015.3 2.2c.6.7 1.1 1.5 1.4 2.5zm-2.2 3.2c0-1.8-.4-3.2-1.1-4.2-.7-1-1.9-1.5-3.4-1.5a4.21 4.21 0 00-3.4 1.5c-.4.5-.7 1.1-.8 1.8-.2.7-.3 1.5-.3 2.4a7.5 7.5 0 001.1 4.2c.4.5.8.9 1.4 1.1.6.3 1.2.4 2 .4 1.5 0 2.6-.5 3.4-1.5.7-1 1.1-2.4 1.1-4.2zm61.6-6.2c-.4-.5-1-.9-1.6-1.2-.6-.3-1.4-.4-2.2-.4-1.1 0-2 .2-2.8.7-.8.4-1.6 1-2.2 1.8l-.2-1.6c-.1-.4-.3-.6-.7-.6h-1.6v15.1h2.7V25.1c.6-.6 1.2-1.2 1.9-1.5.7-.4 1.4-.6 2.2-.6 1.1 0 1.9.3 2.4.9.5.6.8 1.5.8 2.7v9.6h2.7v-9.6c0-.9-.1-1.6-.3-2.3-.3-.7-.7-1.3-1.1-1.8zm-45.1 0c-.4-.5-1-.9-1.6-1.2-.6-.3-1.4-.4-2.2-.4-1.1 0-2 .2-2.8.7-.8.4-1.6 1-2.2 1.8l-.2-1.6c-.1-.4-.3-.6-.7-.6h-1.6v15.1h2.7V25.1c.6-.6 1.2-1.2 1.9-1.5.7-.4 1.4-.6 2.2-.6 1.1 0 1.9.3 2.4.9s.8 1.5.8 2.7v9.6h2.7v-9.6c0-.9-.1-1.6-.3-2.3-.4-.7-.7-1.3-1.1-1.8zm30.4 2.3c.3.8.5 1.8.5 2.9 0 .4 0 .7-.1.8-.1.1-.3.2-.5.2H127c0 1 .2 1.8.4 2.5s.6 1.3 1 1.8.9.8 1.5 1.1a5.92 5.92 0 003.7.2c.5-.2.9-.3 1.3-.5s.6-.3.9-.5c.2-.2.4-.2.6-.2.2 0 .4.1.5.3l.8 1a4 4 0 01-1.2 1c-.5.3-1 .5-1.5.7-.5.2-1.1.3-1.6.4-.6.1-1.1.1-1.7.1-1.1 0-2-.2-2.9-.5A6.96 6.96 0 01125 32c-.4-1-.5-2.2-.5-3.5 0-1.1.2-2 .5-3 .3-.9.8-1.7 1.4-2.4.6-.7 1.4-1.2 2.2-1.6a7.3 7.3 0 015.5-.1c.8.3 1.4.7 2 1.3.5.6 1 1.3 1.3 2.1zm-2 2.3c0-.6-.1-1.2-.3-1.7-.2-.5-.4-1-.8-1.3-.3-.4-.7-.7-1.2-.9-.5-.2-1-.3-1.6-.3-1.3 0-2.3.4-3.1 1.1-.7.7-1.2 1.8-1.4 3.1h8.4zm-13.8 5.8c-.2 0-.4.1-.5.2-.2.2-.4.3-.7.5-.3.2-.6.4-1.1.5-.4.2-1 .2-1.6.2-.7 0-1.3-.1-1.8-.4s-1-.6-1.4-1.1c-.4-.5-.7-1.1-.9-1.8s-.3-1.5-.3-2.4c0-.9.1-1.7.3-2.4.2-.7.5-1.3.9-1.8s.9-.9 1.4-1.1a5.21 5.21 0 013.4-.2c.4.1.7.3 1 .4.3.1.5.3.7.4.2.1.3.2.5.2s.3 0 .3-.1c.1-.1.2-.1.2-.3l.7-1c-.6-.6-1.4-1.1-2.2-1.5a8.21 8.21 0 00-5.9.1c-.9.4-1.6.9-2.3 1.6-.6.7-1.1 1.5-1.4 2.5a10.59 10.59 0 000 6.4c.3 1 .8 1.8 1.4 2.4.6.7 1.3 1.2 2.1 1.5a7.79 7.79 0 005.8-.1c.9-.4 1.8-1 2.5-1.8l-.8-1c.1.2 0 .1-.3.1z"/>
</svg>
