<svg width="900" viewBox="0 0 900 350" xmlns="http://www.w3.org/2000/svg">
 <g>
   <g transform="translate(0, 150) scale(1, -1)">
    <path id="svg_10" d="m94.51004,91.21756l-90.43896,-90.43895c2.51304,-3.22855 6.09095,-6.19136 9.47485,-9.78063c31.4313,-31.38581 63.12077,-63.22584 94.26882,-94.16689c10.04476,-10.04476 20.08951,-20.08951 30.13427,-30.13427l133.97986,133.97986l-88.1276,88.1276l-43.43898,-43.43898c-15.28408,15.28409 -30.56817,30.56817 -45.85225,45.85225zm0,-6.11862l77.18243,-77.18243l-154.36486,0l77.18243,77.18243zm89.29123,-2.41327l31.93349,-31.9335l-63.86699,0l31.9335,31.9335zm-25.90031,-43.99988l69.89959,0c10.25662,-10.25643 20.51325,-20.51285 30.76987,-30.76928l-69.90018,0l-30.76928,30.76928zm-140.77721,-42.73314l74.17055,0l0,-74.17055c-24.72352,24.72352 -49.44703,49.44703 -74.17055,74.17055zm87.08181,-0.10252l154.36486,0l-77.18243,-77.18243l-77.18243,77.18243zm-4.71814,-7.39655l33.02583,-33.02583l-33.02583,-33.02583l0,66.05166zm38.46159,-43.32468c11.65003,-11.65003 23.30006,-23.30006 34.95009,-34.95009c-11.65003,-11.65003 -23.30006,-23.30006 -34.95009,-34.95009c-11.65003,11.65003 -23.30006,23.30006 -34.95009,34.95009c11.65003,11.65003 23.30006,23.30006 34.95009,34.95009z" fill="#ecf3ef" stroke-width="1.331" stroke-linecap="square"/>
    <path d="m178.97472,1.88332l-168.92936,0l84.46468,84.46468l84.46468,-84.46468z" id="svg_9" fill="#5c6475" stroke-width="26.62" stroke-linecap="square"/>
    <path d="m94.31036,-85.50028l-84.46899,84.46899l84.46899,0l0,-84.46899z" id="svg_8" fill="#62b4cb" stroke-width="26.62" stroke-linecap="square"/>
    <path d="m96.77249,-87.40791l41.17653,-41.17653l41.17653,41.17653l-41.17653,41.17653l-41.17653,-41.17653z" id="svg_7" fill="#8ace4b" stroke-width="27.951" stroke-linecap="square"/>
    <path d="m183.36387,2.1699l-38.64259,38.64259l82.35306,0l38.64259,-38.64259l-82.35306,0z" id="svg_6" fill="#8ace4b" stroke-width="27.951" stroke-linecap="square"/>
    <path d="m224.97781,43.13527l-82.35306,0l41.17653,41.17653l41.17653,-41.17653z" id="svg_5" fill="#e9b035" stroke-width="27.951" stroke-linecap="square"/>
    <path d="m136.13906,-44.57225l-39.21574,-39.21574l0,78.43149l39.21574,-39.21574z" id="svg_4" fill="#e9b035" stroke-width="22.627" stroke-linecap="square"/>
    <path d="m96.92332,-1.13328l168.92936,0l-84.46468,-84.46468l-84.46468,84.46468z" id="svg_3" fill="#62b4cb" stroke-width="26.62" stroke-linecap="square"/>
   </g>
  <text font-weight="bold" xml:space="preserve" text-anchor="start" font-family="sans-serif" font-size="160" y="140" x="300" fill="#000000">Elm</text>
  <text font-weight="bold" xml:space="preserve" text-anchor="start" font-family="sans-serif" font-size="160" y="300" x="300" fill="#000000">Weekly</text>
 </g>

</svg>