<?xml version="1.0" encoding="UTF-8" standalone="no"?>
<svg
   viewBox="-600 -600 1200 1200"
   style="max-height: 500px; max-width: 500px;"
   version="1.1"
   id="svg7428"
   sodipodi:docname="Elm Weekly logo.svg"
   inkscape:version="1.2.2 (b0a84865, 2022-12-01)"
   xmlns:inkscape="http://www.inkscape.org/namespaces/inkscape"
   xmlns:sodipodi="http://sodipodi.sourceforge.net/DTD/sodipodi-0.dtd"
   xmlns="http://www.w3.org/2000/svg"
   xmlns:svg="http://www.w3.org/2000/svg">
  <defs
     id="defs7432" />
  <sodipodi:namedview
     id="namedview7430"
     pagecolor="#ffffff"
     bordercolor="#000000"
     borderopacity="0.25"
     inkscape:showpageshadow="2"
     inkscape:pageopacity="0.0"
     inkscape:pagecheckerboard="0"
     inkscape:deskcolor="#d1d1d1"
     showgrid="false"
     inkscape:zoom="0.44070704"
     inkscape:cx="631.93908"
     inkscape:cy="620.59367"
     inkscape:window-width="1672"
     inkscape:window-height="987"
     inkscape:window-x="0"
     inkscape:window-y="43"
     inkscape:window-maximized="0"
     inkscape:current-layer="g7426" />
  <g
     transform="scale(1 -1)"
     id="g7426">
    <path
       id="path47183"
       style="color:#000000;fill:#ecf3ef;stroke-width:1.331;stroke-linecap:square;-inkscape-stroke:none;paint-order:stroke markers fill"
       d="M -191.71991,487.32177 -590.75996,88.281733 c 11.08819,-14.245214 26.87485,-27.317877 41.80548,-43.154684 138.683,-138.482309 278.50516,-278.968729 415.93839,-415.488649 44.320061,-44.32008 88.640116,-88.64013 132.9601691,-132.96017 L 591.09785,87.832 202.25609,476.67377 10.592079,285.00977 c -67.437333,67.43735 -134.874669,134.87466 -202.311989,202.312 z m 0,-26.99694 L 148.82891,119.776 H -532.26876 Z M 202.25609,449.67684 343.15491,308.778 H 61.357244 Z M 87.977244,255.538 H 396.39231 c 45.25485,-45.254 90.50974,-90.508 135.7646,-135.762 H 223.73924 Z M -533.16822,66.988327 h 327.25963 V -260.27131 c -109.08654,109.08655 -218.1731,218.173096 -327.25963,327.259637 z M -148.94076,66.536 H 532.15691 L 191.60809,-274.01284 Z M -169.75841,33.900506 -24.039916,-111.818 -169.75841,-257.53651 Z M -0.0559209,-157.25917 C 51.347024,-208.66211 102.74997,-260.06506 154.15291,-311.468 102.74997,-362.87095 51.347024,-414.2739 -0.0559209,-465.67684 -51.458865,-414.2739 -102.86181,-362.87095 -154.26476,-311.468 c 51.40295,51.40294 102.805895,102.80589 154.2088391,154.20883 z"
       sodipodi:nodetypes="ccccccccccccccccccccccccccccccccccccccc" />
    <path
       style="color:#000000;fill:#5c6475;stroke-width:26.62;stroke-linecap:square;-inkscape-stroke:none;paint-order:stroke markers fill"
       d="m 180.96009,93.156 h -745.36 l 372.68,372.68 z"
       id="path47185" />
    <path
       style="color:#000000;fill:#62b4cb;stroke-width:26.62;stroke-linecap:square;-inkscape-stroke:none;paint-order:stroke markers fill"
       d="M -192.60097,-292.40301 -565.29999,80.29601 h 372.69902 z"
       id="path47179" />
    <path
       style="color:#000000;fill:#8ace4b;stroke-width:27.951;stroke-linecap:square;-inkscape-stroke:none;paint-order:stroke markers fill"
       d="M -181.73741,-300.82 -0.0559209,-482.5015 181.62559,-300.82 -0.0559209,-119.1385 Z"
       id="path47173" />
    <path
       style="color:#000000;fill:#8ace4b;stroke-width:27.951;stroke-linecap:square;-inkscape-stroke:none;paint-order:stroke markers fill"
       d="M 200.32614,94.42045 29.825029,264.92155 H 393.18804 l 170.5011,-170.5011 z"
       id="path47167" />
    <path
       style="color:#000000;fill:#e9b035;stroke-width:27.951;stroke-linecap:square;-inkscape-stroke:none;paint-order:stroke markers fill"
       d="M 383.93759,275.17025 H 20.574579 l 181.681511,181.6815 z"
       id="path47161" />
    <path
       style="color:#000000;fill:#e9b035;stroke-width:22.627;stroke-linecap:square;-inkscape-stroke:none;paint-order:stroke markers fill"
       d="M -8.041921,-111.818 -181.07191,-284.848 V 61.212 Z"
       id="path47155" />
    <path
       style="color:#000000;fill:#62b4cb;stroke-width:26.62;stroke-linecap:square;-inkscape-stroke:none;paint-order:stroke markers fill"
       d="m -181.07191,79.846 h 745.36 l -372.68,-372.68 z"
       id="path47149" />
  </g>
</svg>
