<?xml version="1.0" encoding="UTF-8"?>
<svg width="786px" height="127px" viewBox="0 0 786 127" version="1.1" xmlns="http://www.w3.org/2000/svg" xmlns:xlink="http://www.w3.org/1999/xlink">
    <!-- Generator: Sketch 52.6 (67491) - http://www.bohemiancoding.com/sketch -->
    <title>LAMderA</title>
    <desc>Created with Sketch.</desc>
    <g id="Page-1" stroke="none" stroke-width="1" fill="none" fill-rule="evenodd">
        <g id="Play" transform="translate(-1462.000000, -1001.000000)" fill="#202020">
            <path d="M1546.08972,1125 L1469.8243,1125 C1467.6461,1125 1465.81185,1124.22231 1464.3215,1122.6669 C1462.77382,1121.1691 1462,1119.32568 1462,1117.13659 L1462,1008.86341 C1462,1006.73193 1462.77382,1004.88851 1464.3215,1003.3331 C1465.81185,1001.77769 1467.6461,1001 1469.8243,1001 C1472.0025,1001 1473.86541,1001.77769 1475.41308,1003.3331 C1476.96076,1004.88851 1477.73458,1006.73193 1477.73458,1008.86341 L1477.73458,1109.18676 L1546.08972,1109.18676 C1548.26792,1109.18676 1550.13083,1109.96445 1551.6785,1111.51986 C1553.22618,1113.07527 1554,1114.94749 1554,1117.13659 C1554,1119.32568 1553.22618,1121.1691 1551.6785,1122.6669 C1550.13083,1124.22231 1548.26792,1125 1546.08972,1125 Z M1676.66629,1121.45714 C1675.11852,1123.81906 1672.4326,1125 1669.25752,1125 C1667.21558,1124.68393 1665.56545,1123.69374 1664.30715,1122.02942 C1663.27311,1120.6328 1661.20179,1116.35191 1658.09319,1109.18676 L1622.92467,1028.56516 L1583.0269,1120.24739 C1581.65111,1123.41581 1579.27217,1125 1575.89001,1125 C1574.80084,1125 1573.74035,1124.76957 1572.70851,1124.30871 C1570.70215,1123.44459 1569.32637,1122.00442 1568.58115,1119.98815 C1567.77861,1117.97188 1567.80727,1115.95564 1568.66714,1113.93937 L1615.78779,1005.75261 C1617.16358,1002.58419 1619.54252,1001 1622.92467,1001 C1626.36415,1001 1628.77175,1002.58419 1630.14755,1005.75261 L1677.26819,1113.93937 C1678.41469,1116.53172 1678.21405,1119.03762 1676.66629,1121.45714 Z M1699.86251,1125 C1697.67367,1125 1695.83046,1124.22303 1694.33283,1122.66906 C1692.7776,1121.17265 1692,1119.33095 1692,1117.14389 L1692,1008.97123 C1692,1005.17265 1693.84321,1002.66908 1697.52968,1001.46044 C1701.15855,1000.30935 1704.09616,1001.31654 1706.3426,1004.48202 L1749.4568,1065.17266 L1792.6574,1004.48202 C1794.84624,1001.31654 1797.78385,1000.30935 1801.47032,1001.46044 C1805.15679,1002.66908 1807,1005.17265 1807,1008.97123 L1807,1117.14389 C1807,1119.33095 1806.2224,1121.17265 1804.66717,1122.66906 C1803.11194,1124.22303 1801.23993,1125 1799.05109,1125 C1796.86225,1125 1795.01904,1124.22303 1793.52141,1122.66906 C1791.96618,1121.17265 1791.18858,1119.33095 1791.18858,1117.14389 L1791.18858,1033.74821 L1755.93689,1083.38849 C1754.32406,1085.57555 1752.16405,1086.66907 1749.4568,1086.66907 C1746.74955,1086.66907 1744.61834,1085.57555 1743.06311,1083.38849 L1707.81142,1033.74821 L1707.81142,1117.14389 C1707.81142,1119.33095 1707.03382,1121.17265 1705.47859,1122.66906 C1703.92336,1124.22303 1702.05135,1125 1699.86251,1125 Z M1836,1017 L1836,1109 L1855.00132,1109 C1867.72625,1109 1878.55948,1104.52483 1887.50132,1095.57437 C1896.50049,1086.56653 1901,1075.72286 1901,1063.04303 C1901,1050.30583 1896.50049,1039.46216 1887.50132,1030.51169 C1878.55948,1021.50385 1867.72625,1017 1855.00132,1017 L1836,1017 Z M1854.92692,1125 L1827.8672,1125 C1825.67705,1125 1823.83275,1124.22231 1822.33422,1122.6669 C1820.77807,1121.1691 1820,1119.32568 1820,1117.13659 L1820,1008.86341 C1820,1006.73193 1820.77807,1004.88851 1822.33422,1003.3331 C1823.83275,1001.77769 1825.67705,1001 1827.8672,1001 L1854.92692,1001 C1872.10228,1001 1886.74147,1007.04872 1898.84492,1019.14634 C1910.94837,1031.24396 1917,1045.8761 1917,1063.04321 C1917,1080.1527 1910.94837,1094.75604 1898.84492,1106.85366 C1886.74147,1118.95128 1872.10228,1125 1854.92692,1125 Z M2012.06897,1125 L1937.84483,1125 C1935.66091,1125 1933.82185,1124.22231 1932.32759,1122.6669 C1930.77585,1121.1691 1930,1119.32568 1930,1117.13659 L1930,1008.86341 C1930,1006.73193 1930.77585,1004.88851 1932.32759,1003.3331 C1933.82185,1001.77769 1935.66091,1001 1937.84483,1001 L2012.06897,1001 C2014.25288,1001 2016.12068,1001.77769 2017.67241,1003.3331 C2019.22415,1004.88851 2020,1006.73193 2020,1008.86341 C2020,1011.05251 2019.22415,1012.92473 2017.67241,1014.48014 C2016.12068,1016.03555 2014.25288,1016.81324 2012.06897,1016.81324 L1945.77586,1016.81324 L1945.77586,1055.09338 L1994.13793,1055.09338 C1996.26438,1055.09338 1998.10344,1055.87107 1999.65517,1057.42648 C2001.2069,1058.98189 2001.98276,1060.85411 2001.98276,1063.04321 C2001.98276,1065.17469 2001.2069,1067.01811 1999.65517,1068.57352 C1998.10344,1070.12893 1996.26438,1070.90662 1994.13793,1070.90662 L1945.77586,1070.90662 L1945.77586,1109.18676 L2012.06897,1109.18676 C2014.25288,1109.18676 2016.12068,1109.96445 2017.67241,1111.51986 C2019.22415,1113.07527 2020,1114.94749 2020,1117.13659 C2020,1119.32568 2019.22415,1121.1691 2017.67241,1122.6669 C2016.12068,1124.22231 2014.25288,1125 2012.06897,1125 Z M2107,1041.5 C2107,1034.73739 2104.62274,1028.94915 2099.86815,1024.13509 C2095.05627,1019.37834 2089.27065,1017 2082.51111,1017 L2049,1017 L2049,1066 L2082.51111,1066 C2089.27065,1066 2095.05627,1063.62166 2099.86815,1058.86491 C2104.62274,1054.05085 2107,1048.26261 2107,1041.5 Z M2040.84158,1125 C2038.65857,1125 2036.82026,1124.22231 2035.32662,1122.6669 C2033.77553,1121.1691 2033,1119.32568 2033,1117.13659 L2033,1008.86341 C2033,1006.73193 2033.77553,1004.88851 2035.32662,1003.3331 C2036.82026,1001.77769 2038.65857,1001 2040.84158,1001 L2082.37611,1001 C2093.52098,1001 2103.02844,1004.94607 2110.89878,1012.83833 C2118.76913,1020.78819 2122.70424,1030.32213 2122.70424,1041.44042 C2122.70424,1050.65765 2119.88934,1058.89543 2114.25946,1066.15401 C2108.74447,1073.29736 2101.67851,1078.04993 2093.06134,1080.41185 L2121.84253,1111.77909 C2123.33617,1113.39211 2124.05426,1115.26433 2123.99681,1117.39582 C2123.88191,1119.58491 2123.02021,1121.42833 2121.41167,1122.92613 C2119.91803,1124.30872 2118.13718,1125 2116.06906,1125 C2113.77115,1125 2111.84667,1124.1647 2110.29558,1122.49408 L2072.98345,1081.88084 L2048.76933,1081.88084 L2048.76933,1117.13659 C2048.76933,1119.32568 2047.9938,1121.1691 2046.44271,1122.6669 C2044.89162,1124.22231 2043.0246,1125 2040.84158,1125 Z M2246.66629,1124.45714 C2245.11852,1126.81906 2242.4326,1128 2239.25752,1128 C2237.21558,1127.68393 2235.56545,1126.69374 2234.30715,1125.02942 C2233.27311,1123.6328 2231.20179,1119.35191 2228.09319,1112.18676 L2192.92467,1031.56516 L2153.0269,1123.24739 C2151.65111,1126.41581 2149.27217,1128 2145.89001,1128 C2144.80084,1128 2143.74035,1127.76957 2142.70851,1127.30871 C2140.70215,1126.44459 2139.32637,1125.00442 2138.58115,1122.98815 C2137.77861,1120.97188 2137.80727,1118.95564 2138.66714,1116.93937 L2185.78779,1008.75261 C2187.16358,1005.58419 2189.54252,1004 2192.92467,1004 C2196.36415,1004 2198.77175,1005.58419 2200.14755,1008.75261 L2247.26819,1116.93937 C2248.41469,1119.53172 2248.21405,1122.03762 2246.66629,1124.45714 Z" id="LAMderA"></path>
        </g>
    </g>
</svg>