<svg width="250" height="136" viewBox="0 0 250 136" fill="none"
  xmlns="http://www.w3.org/2000/svg">
  <path fill-rule="evenodd" clip-rule="evenodd" d="M104.167 9.375H104.218C104.741 4.11112 109.182 0 114.583 0C119.985 0 124.426 4.11112 124.949 9.375H125V103.542H124.949C124.983 103.884 125 104.232 125 104.583C125 110.336 129.664 115 135.417 115C141.17 115 145.833 119.664 145.833 125.417C145.833 131.17 141.17 135.833 135.417 135.833C129.664 135.833 125 131.17 125 125.417C125 119.664 120.336 115 114.583 115C108.83 115 104.167 110.336 104.167 104.583C104.167 104.232 104.184 103.884 104.218 103.542H104.167V9.375ZM10.4167 52.5005C4.6637 52.5005 0 47.8367 0 42.0838C0 36.3308 4.6637 31.6671 10.4167 31.6671C16.1696 31.6671 20.8333 36.3308 20.8333 42.0838C20.8333 47.8367 25.497 52.5005 31.25 52.5005C37.003 52.5005 41.6667 47.8367 41.6667 42.0838C41.6667 36.3308 46.3304 31.6671 52.0833 31.6671C57.8363 31.6671 62.5 36.3308 62.5 42.0838C62.5 47.8367 67.1637 52.5005 72.9167 52.5005C78.6696 52.5005 83.3333 57.1642 83.3333 62.9171V125.417C83.3333 131.17 78.6696 135.834 72.9167 135.834C67.1637 135.834 62.5 131.17 62.5 125.417V62.9171C62.5 57.1642 57.8363 52.5005 52.0833 52.5005C46.3304 52.5005 41.6667 57.1642 41.6667 62.9171C41.6667 68.6701 37.003 73.3338 31.25 73.3338C25.497 73.3338 20.8333 77.9975 20.8333 83.7504V125.417C20.8333 131.17 16.1696 135.834 10.4167 135.834C4.6637 135.834 0 131.17 0 125.417V83.7504C0 77.9975 4.6637 73.3338 10.4167 73.3338C16.1696 73.3338 20.8333 68.6701 20.8333 62.9171C20.8333 57.1642 16.1696 52.5005 10.4167 52.5005ZM177.083 73.3338C171.33 73.3338 166.667 68.6701 166.667 62.9171V42.0838C166.667 36.3308 171.33 31.6671 177.083 31.6671C182.836 31.6671 187.5 36.3308 187.5 42.0838V62.9171C187.5 68.6701 192.164 73.3338 197.917 73.3338H218.75C224.503 73.3338 229.167 68.6701 229.167 62.9171V42.0838C229.167 36.3308 233.83 31.6671 239.583 31.6671C245.336 31.6671 250 36.3308 250 42.0838V62.9171C250 68.6701 245.336 73.3338 239.583 73.3338C233.83 73.3338 229.167 77.9975 229.167 83.7504C229.167 89.5034 233.83 94.1671 239.583 94.1671C245.336 94.1671 250 98.8308 250 104.584V125.417C250 131.17 245.336 135.834 239.583 135.834C233.83 135.834 229.167 131.17 229.167 125.417V104.584C229.167 98.8308 224.503 94.1671 218.75 94.1671H197.917C192.164 94.1671 187.5 98.8308 187.5 104.584V125.417C187.5 131.17 182.836 135.834 177.083 135.834C171.33 135.834 166.667 131.17 166.667 125.417V104.584C166.667 98.8308 171.33 94.1671 177.083 94.1671C182.836 94.1671 187.5 89.5034 187.5 83.7504C187.5 77.9975 182.836 73.3338 177.083 73.3338Z" fill="currentColor"></path>
</svg>