<?xml version="1.0" encoding="UTF-8"?>
<svg width="140px" height="31px" viewBox="0 0 140 31" version="1.1" xmlns="http://www.w3.org/2000/svg" xmlns:xlink="http://www.w3.org/1999/xlink">
    <title>standard-normal</title>
    <g id="Page-1" stroke="none" stroke-width="1" fill="none" fill-rule="evenodd">
        <g id="Logos" transform="translate(-21.000000, -16.000000)">
            <g id="standard-normal" transform="translate(21.000000, 16.000000)">
                <path d="M5.54868778,7.78859184 L5.54868778,10.4337143 L5.63294118,10.4337143 C6.85239819,8.20867347 8.95366516,7.20085714 11.3919457,7.20085714 C15.0072398,7.20085714 17.1509502,9.17346939 17.1509502,13.623551 L17.1509502,30.3749388 L11.3501357,30.3749388 L11.3501357,14.7996531 C11.3501357,12.5322245 10.5931222,11.6509388 8.87004525,11.6509388 C6.89357466,11.6509388 5.80081448,12.8687959 5.80081448,15.3867551 L5.80081448,30.3749388 L0,30.3749388 L0,7.78859184 L5.54868778,7.78859184 Z" id="Fill-15" fill="#F3336C"></path>
                <path d="M29.1763801,27.0161837 C31.5304072,27.0161837 32.2867873,24.7076327 32.2867873,19.081449 C32.2867873,13.455898 31.5304072,11.1473469 29.1763801,11.1473469 C26.3180995,11.1473469 26.0659729,14.4637143 26.0659729,19.081449 C26.0659729,23.6998163 26.3180995,27.0161837 29.1763801,27.0161837 L29.1763801,27.0161837 Z M29.1763801,7.20085714 C36.1548416,7.07495918 38.0882353,11.2314898 38.0882353,19.081449 C38.0882353,26.8061429 35.8184615,30.9620408 29.1763801,30.9620408 C22.1979186,31.0885714 20.2645249,26.9320408 20.2645249,19.081449 C20.2645249,11.3567551 22.5342986,7.20085714 29.1763801,7.20085714 L29.1763801,7.20085714 Z" id="Fill-16" fill="#F3336C"></path>
                <path d="M41.7060633,8.08214286 L44.2285973,8.08214286 L44.2285973,11.5667959 L44.3122172,11.5667959 C45.278914,9.08995918 47.3390045,7.57855102 49.9457919,7.57855102 C50.2397285,7.57855102 50.5336652,7.62093878 50.8282353,7.70444898 L50.8282353,10.2236735 C50.4082353,10.1395306 49.9876018,10.0977755 49.6094118,10.0977755 C46.8347511,10.0977755 44.2285973,12.1127755 44.2285973,16.4369592 L44.2285973,30.3749388 L41.7060633,30.3749388 L41.7060633,8.08214286" id="Fill-17" fill="#1A1919"></path>
                <path d="M64.660362,17.234102 C64.5761086,11.6926939 63.0202715,9.67769388 59.9098643,9.67769388 C56.799457,9.67769388 55.2436199,11.6926939 55.16,17.234102 L64.660362,17.234102 L64.660362,17.234102 Z M67.1404525,22.9861837 C66.7622624,27.7298163 64.1554751,30.8791633 59.9523077,30.8791633 C55.2436199,30.8791633 52.4695928,27.6039184 52.4695928,19.2079796 C52.4695928,11.4826531 55.2436199,7.57855102 60.161991,7.57855102 C65.1228054,7.57855102 67.3507692,10.9796939 67.3507692,18.4102041 L67.3507692,19.3338776 L55.16,19.3338776 L55.16,20.383449 C55.16,26.8061429 57.4297738,28.7793878 59.9098643,28.7793878 C62.5584615,28.7793878 64.1979186,26.8902857 64.6179186,22.9861837 L67.1404525,22.9861837 L67.1404525,22.9861837 Z" id="Fill-18" fill="#1A1919"></path>
                <path d="M77.9457919,28.7793878 C80.5101357,28.7793878 82.8223529,27.4780204 82.8223529,19.2079796 C82.8223529,10.9796939 80.5101357,9.67769388 77.9457919,9.67769388 C75.4232579,9.67769388 73.0698643,10.9796939 73.0698643,19.2079796 C73.0698643,27.4780204 75.4232579,28.7793878 77.9457919,28.7793878 L77.9457919,28.7793878 Z M83.0744796,26.6802449 L82.9902262,26.6802449 C82.3180995,29.2418571 80.1743891,30.8791633 77.5257919,30.8791633 C72.6080543,30.8791633 70.379457,26.9320408 70.379457,19.2079796 C70.379457,11.5250408 72.6080543,7.57855102 77.5257919,7.57855102 C80.299819,7.57855102 82.1914027,9.08995918 82.7374661,11.440898 L82.8223529,11.440898 L82.8223529,0.399836735 L85.3442534,0.399836735 L85.3442534,30.3749388 L83.0744796,30.3749388 L83.0744796,26.6802449 L83.0744796,26.6802449 Z" id="Fill-19" fill="#1A1919"></path>
                <path d="M89.6772851,7.78859184 L95.4780995,7.78859184 L95.4780995,30.3749388 L89.6772851,30.3749388 L89.6772851,7.78859184 Z M89.6772851,0.0632653061 L95.4780995,0.0632653061 L95.4780995,5.01693878 L89.6772851,5.01693878 L89.6772851,0.0632653061 Z" id="Fill-20" fill="#F3336C"></path>
                <path d="M99.5564706,7.78859184 L105.105792,7.78859184 L105.105792,10.4337143 L105.189412,10.4337143 C106.409502,8.20867347 108.510769,7.20085714 110.948416,7.20085714 C114.56371,7.20085714 116.708054,9.17346939 116.708054,13.623551 L116.708054,30.3749388 L110.906606,30.3749388 L110.906606,14.7996531 C110.906606,12.5322245 110.149593,11.6509388 108.426516,11.6509388 C106.451312,11.6509388 105.357919,12.8687959 105.357919,15.3867551 L105.357919,30.3749388 L99.5564706,30.3749388 L99.5564706,7.78859184" id="Fill-21" fill="#F3336C"></path>
                <polyline id="Fill-22" fill="#F3336C" points="126.58914 0.399836735 126.58914 16.2269184 126.673394 16.2269184 132.516652 7.78859184 138.905973 7.78859184 132.390588 16.6887551 139.873303 30.3749388 133.483348 30.3749388 128.648597 21.0970816 126.58914 23.7839592 126.58914 30.3749388 120.788326 30.3749388 120.788326 0.399836735 126.58914 0.399836735"></polyline>
            </g>
        </g>
    </g>
</svg>