<svg width="540" height="158" viewBox="0 0 540 158" fill="none" xmlns="http://www.w3.org/2000/svg">
<path d="M56.016 113.92C53.584 113.92 51.28 113.632 49.104 113.056C46.992 112.48 45.04 111.712 43.248 110.752C41.52 109.728 39.984 108.608 38.64 107.392C37.296 106.176 36.24 104.96 35.472 103.744C34.768 102.72 34.32 101.888 34.128 101.248C33.936 100.544 33.968 99.872 34.224 99.232C34.544 98.592 35.152 97.888 36.048 97.12C37.072 96.352 37.968 96 38.736 96.064C39.504 96.064 40.208 96.352 40.848 96.928C41.552 97.504 42.256 98.272 42.96 99.232C44.56 101.408 46.512 103.008 48.816 104.032C51.12 104.992 53.392 105.472 55.632 105.472C58.512 105.472 61.072 105.088 63.312 104.32C65.552 103.552 67.312 102.4 68.592 100.864C69.936 99.264 70.608 97.216 70.608 94.72C70.608 92.672 70.096 90.944 69.072 89.536C68.048 88.128 66.672 86.944 64.944 85.984C63.216 84.96 61.296 84.096 59.184 83.392C57.072 82.624 54.928 81.888 52.752 81.184C51.024 80.608 49.328 79.968 47.664 79.264C46 78.496 44.432 77.664 42.96 76.768C41.488 75.808 40.176 74.688 39.024 73.408C37.936 72.128 37.072 70.624 36.432 68.896C35.856 67.168 35.568 65.152 35.568 62.848C35.568 59.328 36.4 56.224 38.064 53.536C39.792 50.848 42.192 48.768 45.264 47.296C48.336 45.76 51.888 44.992 55.92 44.992C58.288 44.992 60.464 45.216 62.448 45.664C64.432 46.112 66.192 46.72 67.728 47.488C69.264 48.192 70.576 48.96 71.664 49.792C72.752 50.56 73.584 51.296 74.16 52C75.312 53.216 75.952 54.24 76.08 55.072C76.208 55.904 75.728 56.928 74.64 58.144C73.616 59.296 72.624 59.904 71.664 59.968C70.704 60.032 69.648 59.584 68.496 58.624C67.28 57.216 66 56.128 64.656 55.36C63.376 54.592 62 54.08 60.528 53.824C59.12 53.504 57.552 53.344 55.824 53.344C54.16 53.344 52.592 53.568 51.12 54.016C49.712 54.4 48.464 55.008 47.376 55.84C46.352 56.672 45.552 57.696 44.976 58.912C44.4 60.064 44.112 61.408 44.112 62.944C44.112 64.672 44.56 66.144 45.456 67.36C46.416 68.576 47.664 69.632 49.2 70.528C50.736 71.36 52.464 72.128 54.384 72.832C56.304 73.472 58.32 74.112 60.432 74.752C62.736 75.456 65.008 76.32 67.248 77.344C69.488 78.304 71.504 79.52 73.296 80.992C75.088 82.4 76.528 84.192 77.616 86.368C78.704 88.544 79.248 91.232 79.248 94.432C79.248 97.632 78.608 100.448 77.328 102.88C76.112 105.312 74.416 107.36 72.24 109.024C70.064 110.624 67.568 111.84 64.752 112.672C62 113.504 59.088 113.92 56.016 113.92ZM121.46 113.152C118.004 113.152 114.644 112.64 111.38 111.616C108.116 110.592 105.076 109.12 102.26 107.2C99.4443 105.28 96.9483 102.912 94.7723 100.096C92.6603 97.216 90.9963 94.016 89.7803 90.496C88.5643 86.912 87.9563 82.976 87.9563 78.688C87.9563 74.592 88.5643 70.816 89.7803 67.36C90.9963 63.84 92.6603 60.736 94.7723 58.048C96.8843 55.36 99.3483 53.088 102.164 51.232C105.044 49.312 108.116 47.872 111.38 46.912C114.708 45.888 118.1 45.376 121.556 45.376C124.756 45.376 127.508 45.696 129.812 46.336C132.116 46.976 134.004 47.68 135.476 48.448C136.948 49.152 137.94 49.696 138.452 50.08C139.348 50.592 140.212 51.2 141.044 51.904C141.876 52.608 142.324 53.44 142.388 54.4C142.516 55.104 142.452 55.68 142.196 56.128C142.004 56.576 141.748 57.056 141.428 57.568C140.916 58.336 140.372 58.912 139.796 59.296C139.284 59.616 138.708 59.776 138.068 59.776C137.428 59.776 136.852 59.584 136.34 59.2C135.828 58.816 135.156 58.368 134.324 57.856C133.94 57.6 133.172 57.184 132.02 56.608C130.868 56.032 129.396 55.488 127.604 54.976C125.812 54.4 123.636 54.112 121.076 54.112C117.812 54.112 114.676 54.72 111.668 55.936C108.724 57.088 106.132 58.752 103.892 60.928C101.652 63.104 99.8923 65.728 98.6123 68.8C97.3323 71.872 96.6923 75.328 96.6923 79.168C96.6923 83.072 97.3323 86.592 98.6123 89.728C99.8923 92.8 101.652 95.424 103.892 97.6C106.196 99.776 108.82 101.44 111.764 102.592C114.708 103.744 117.812 104.32 121.076 104.32C123.508 104.32 125.62 104.064 127.412 103.552C129.268 103.04 130.772 102.496 131.924 101.92C133.14 101.28 133.972 100.8 134.42 100.48C135.124 100.096 135.732 99.712 136.244 99.328C136.82 98.944 137.428 98.752 138.068 98.752C138.708 98.752 139.284 98.944 139.796 99.328C140.372 99.648 140.916 100.192 141.428 100.96C141.748 101.408 142.004 101.92 142.196 102.496C142.452 103.008 142.516 103.584 142.388 104.224C142.324 105.184 141.876 106.016 141.044 106.72C140.212 107.36 139.348 107.968 138.452 108.544C137.876 108.8 136.852 109.344 135.38 110.176C133.972 110.944 132.116 111.616 129.812 112.192C127.508 112.832 124.724 113.152 121.46 113.152ZM158.708 112.96C157.492 112.96 156.564 112.768 155.924 112.384C155.284 112.064 154.868 111.584 154.676 110.944C154.548 110.24 154.484 109.44 154.484 108.544V50.176C154.484 49.344 154.58 48.64 154.772 48.064C155.028 47.424 155.444 46.912 156.02 46.528C156.66 46.144 157.588 45.952 158.804 45.952H180.02C183.156 45.952 186.004 46.432 188.564 47.392C191.188 48.288 193.46 49.632 195.38 51.424C197.3 53.216 198.772 55.488 199.796 58.24C200.884 60.928 201.427 64.064 201.427 67.648C201.427 69.888 201.076 72.224 200.372 74.656C199.668 77.024 198.58 79.264 197.108 81.376C195.7 83.488 193.876 85.248 191.636 86.656C189.396 88.064 186.676 88.864 183.476 89.056H163.124V108.64C163.124 109.536 162.996 110.304 162.74 110.944C162.548 111.584 162.132 112.064 161.492 112.384C160.916 112.768 159.988 112.96 158.708 112.96ZM199.892 111.904C198.548 112.8 197.396 113.088 196.436 112.768C195.54 112.448 194.676 111.68 193.844 110.464L178.484 85.888L187.988 84.448L201.236 105.568C201.876 106.592 202.26 107.456 202.388 108.16C202.58 108.864 202.452 109.504 202.004 110.08C201.62 110.656 200.916 111.264 199.892 111.904ZM163.124 80.608H182.132C183.604 80.608 184.98 80.352 186.26 79.84C187.54 79.264 188.66 78.432 189.62 77.344C190.58 76.256 191.348 74.912 191.924 73.312C192.5 71.712 192.788 69.792 192.788 67.552C192.788 64.8 192.276 62.464 191.252 60.544C190.292 58.624 188.852 57.184 186.932 56.224C185.012 55.2 182.644 54.688 179.828 54.688H163.124V80.608ZM217.462 112.96C216.182 112.96 215.222 112.768 214.582 112.384C214.006 112.064 213.622 111.584 213.43 110.944C213.238 110.24 213.142 109.44 213.142 108.544V50.272C213.142 49.376 213.238 48.608 213.43 47.968C213.686 47.328 214.102 46.848 214.678 46.528C215.318 46.144 216.278 45.952 217.558 45.952C218.838 45.952 219.766 46.144 220.342 46.528C220.982 46.848 221.366 47.328 221.494 47.968C221.686 48.608 221.782 49.408 221.782 50.368V108.64C221.782 109.536 221.686 110.304 221.494 110.944C221.302 111.584 220.886 112.064 220.246 112.384C219.67 112.768 218.742 112.96 217.462 112.96ZM238.754 112.96C237.538 112.96 236.61 112.768 235.97 112.384C235.394 112.064 235.01 111.584 234.818 110.944C234.626 110.24 234.53 109.44 234.53 108.544V50.272C234.53 49.44 234.626 48.704 234.818 48.064C235.074 47.424 235.522 46.912 236.162 46.528C236.802 46.144 237.698 45.952 238.85 45.952H259.874C262.946 45.952 265.762 46.432 268.322 47.392C270.946 48.288 273.218 49.696 275.138 51.616C277.122 53.472 278.658 55.744 279.746 58.432C280.834 61.12 281.378 64.224 281.378 67.744C281.378 71.2 280.834 74.272 279.746 76.96C278.658 79.648 277.122 81.92 275.138 83.776C273.154 85.568 270.85 86.944 268.226 87.904C265.666 88.864 262.85 89.344 259.778 89.344H243.266V108.64C243.266 109.536 243.138 110.304 242.882 110.944C242.69 111.584 242.274 112.064 241.634 112.384C241.058 112.768 240.098 112.96 238.754 112.96ZM243.266 80.608H259.874C262.434 80.608 264.674 80.128 266.594 79.168C268.514 78.144 270.018 76.672 271.106 74.752C272.194 72.768 272.738 70.368 272.738 67.552C272.738 64.864 272.226 62.56 271.202 60.64C270.178 58.72 268.674 57.248 266.69 56.224C264.77 55.2 262.466 54.688 259.778 54.688H243.266V80.608ZM337.883 45.952C338.715 45.952 339.387 46.048 339.899 46.24C340.475 46.432 340.923 46.816 341.243 47.392C341.563 47.904 341.723 48.768 341.723 49.984C341.723 51.136 341.531 52 341.147 52.576C340.827 53.152 340.379 53.536 339.803 53.728C339.227 53.856 338.523 53.92 337.691 53.92H317.819V108.736C317.819 109.568 317.691 110.304 317.435 110.944C317.243 111.584 316.827 112.064 316.187 112.384C315.611 112.768 314.715 112.96 313.499 112.96C312.219 112.96 311.259 112.768 310.619 112.384C310.043 112.064 309.659 111.584 309.467 110.944C309.339 110.24 309.275 109.472 309.275 108.64V53.92H289.115C288.283 53.92 287.579 53.856 287.003 53.728C286.427 53.536 285.979 53.152 285.659 52.576C285.339 52 285.179 51.136 285.179 49.984C285.179 48.768 285.307 47.904 285.563 47.392C285.883 46.816 286.331 46.432 286.907 46.24C287.547 46.048 288.251 45.952 289.019 45.952H337.883ZM395.662 106.816C396.174 107.776 396.43 108.608 396.43 109.312C396.494 109.952 396.302 110.56 395.854 111.136C395.406 111.648 394.702 112.128 393.742 112.576C392.206 113.28 390.99 113.44 390.094 113.056C389.262 112.672 388.494 111.744 387.79 110.272L363.79 59.2L339.982 110.176C339.278 111.648 338.478 112.576 337.582 112.96C336.75 113.344 335.534 113.184 333.934 112.48C332.974 112.096 332.27 111.616 331.822 111.04C331.438 110.464 331.278 109.76 331.342 108.928C331.47 108.096 331.79 107.136 332.302 106.048L359.854 48.544C360.238 47.776 360.782 47.168 361.486 46.72C362.254 46.208 363.054 45.952 363.886 45.952C364.462 45.952 365.006 46.048 365.518 46.24C366.03 46.432 366.478 46.72 366.862 47.104C367.246 47.488 367.566 48 367.822 48.64L395.662 106.816ZM345.742 93.856L349.006 86.464H378.766L381.934 93.856H345.742ZM407.864 113.056C405.944 113.056 404.6 112.672 403.832 111.904C403.064 111.136 402.68 109.856 402.68 108.064C402.68 106.72 402.84 105.696 403.16 104.992C403.48 104.224 404.024 103.68 404.792 103.36C405.56 102.976 406.584 102.784 407.864 102.784C409.784 102.784 411.096 103.168 411.799 103.936C412.568 104.704 412.952 106.048 412.952 107.968C412.952 109.248 412.792 110.272 412.472 111.04C412.152 111.744 411.608 112.256 410.84 112.576C410.136 112.896 409.144 113.056 407.864 113.056ZM428.306 112.96C427.026 112.96 426.066 112.768 425.426 112.384C424.85 112.064 424.466 111.584 424.273 110.944C424.082 110.24 423.986 109.44 423.986 108.544V50.272C423.986 49.376 424.082 48.608 424.273 47.968C424.53 47.328 424.946 46.848 425.522 46.528C426.162 46.144 427.122 45.952 428.402 45.952C429.682 45.952 430.61 46.144 431.186 46.528C431.826 46.848 432.21 47.328 432.338 47.968C432.53 48.608 432.626 49.408 432.626 50.368V108.64C432.626 109.536 432.53 110.304 432.338 110.944C432.146 111.584 431.73 112.064 431.09 112.384C430.514 112.768 429.586 112.96 428.306 112.96ZM474.366 113.632C469.822 113.632 465.534 112.768 461.502 111.04C457.534 109.312 454.014 106.912 450.942 103.84C447.934 100.704 445.566 97.12 443.838 93.088C442.11 89.056 441.246 84.704 441.246 80.032C441.246 75.296 442.078 70.848 443.742 66.688C445.406 62.464 447.71 58.784 450.654 55.648C453.662 52.512 457.118 50.048 461.022 48.256C464.926 46.464 469.086 45.568 473.502 45.568C478.11 45.568 482.398 46.432 486.366 48.16C490.398 49.888 493.886 52.32 496.83 55.456C499.838 58.528 502.206 62.144 503.934 66.304C505.662 70.464 506.526 74.912 506.526 79.648C506.526 84.32 505.662 88.704 503.934 92.8C502.27 96.832 499.966 100.448 497.022 103.648C494.078 106.784 490.654 109.248 486.75 111.04C482.91 112.768 478.782 113.632 474.366 113.632ZM473.79 104.896C477.118 104.896 480.222 104.256 483.102 102.976C486.046 101.696 488.606 99.904 490.782 97.6C492.958 95.232 494.654 92.544 495.87 89.536C497.15 86.464 497.79 83.136 497.79 79.552C497.79 76.096 497.15 72.864 495.87 69.856C494.654 66.784 492.926 64.096 490.686 61.792C488.51 59.424 485.982 57.568 483.102 56.224C480.222 54.88 477.15 54.208 473.886 54.208C470.622 54.208 467.55 54.88 464.67 56.224C461.79 57.568 459.23 59.392 456.99 61.696C454.814 64 453.086 66.688 451.806 69.76C450.59 72.832 449.982 76.128 449.982 79.648C449.982 83.104 450.59 86.368 451.806 89.44C453.086 92.512 454.814 95.2 456.99 97.504C459.23 99.808 461.758 101.632 464.574 102.976C467.454 104.256 470.526 104.896 473.79 104.896Z" fill="black"/>
<path d="M3.00024 76.0212L3.00011 85.1284L3.00002 88.4911L2.99999 89.4675L2.99998 89.7286L2.99998 89.796L2.99998 89.8131L2.99998 89.8174L2.99998 89.8185L2.99998 89.8188L3.00016 103.049L3.00025 125.163L3.00016 143.773C4.97064 143.481 7.73865 143.083 11.1968 142.612C18.6046 141.601 29.1818 140.255 41.8724 138.91C67.2433 136.219 101.107 133.524 135 133.524C168.893 133.524 202.757 136.219 228.128 138.909C240.818 140.255 251.396 141.601 258.803 142.611C262.508 143.117 265.42 143.538 267.408 143.833C268.403 143.981 269.166 144.097 269.682 144.176C269.94 144.216 270.136 144.246 270.268 144.267L270.419 144.291L270.457 144.297L270.467 144.298L270.47 144.299C270.471 144.299 270.471 144.299 270 147.262C270.471 144.299 270.471 144.299 270.472 144.299L270.474 144.299L270.482 144.301L270.517 144.306L270.66 144.329C270.787 144.349 270.978 144.378 271.231 144.417C271.737 144.495 272.49 144.61 273.473 144.756C275.44 145.048 278.328 145.466 282.007 145.967C289.366 146.97 299.883 148.309 312.505 149.648C337.76 152.326 371.396 155 405 155C438.604 155 472.24 152.326 497.495 149.648C510.117 148.309 520.634 146.97 527.993 145.967C531.672 145.466 534.56 145.048 536.527 144.756C536.691 144.731 536.849 144.708 537 144.685L537 14.2874C535.032 14.6112 532.28 15.0523 528.849 15.5735C521.438 16.6993 510.858 18.1996 498.163 19.6996C472.786 22.6983 438.909 25.7025 405 25.7025C371.088 25.7025 337.211 22.6983 311.834 19.6996C299.14 18.1996 288.561 16.6994 281.151 15.5735C277.445 15.0106 274.532 14.5411 272.543 14.212C271.548 14.0474 270.784 13.9179 270.267 13.8293C270.149 13.809 270.043 13.7908 269.951 13.7748C269.842 13.756 269.752 13.7403 269.68 13.7278L269.53 13.7015L269.528 13.7008L269.527 13.7005L269.518 13.6992L269.491 13.6946L269.483 13.6937L269.481 13.6928L269.34 13.6712C269.213 13.6513 269.022 13.6215 268.769 13.5826C268.263 13.5048 267.51 13.3902 266.527 13.2442C264.56 12.9522 261.672 12.5344 257.993 12.0328C250.634 11.0295 240.117 9.69097 227.495 8.35234C202.24 5.67396 168.604 3 135 3C101.393 3.00001 67.7569 5.67398 42.5029 8.35235C29.881 9.69099 19.3644 11.0295 12.0066 12.0328C8.3279 12.5345 5.43941 12.9522 3.47285 13.2442C3.30884 13.2686 3.15124 13.292 3.00013 13.3146L3.00014 36.1407L3.00014 58.8215L3.00024 76.0212Z" stroke="black" stroke-width="6"/>
</svg>
